<?xml version="1.0" encoding="utf-8"?>
<!-- Generator: Adobe Illustrator 22.0.1, SVG Export Plug-In . SVG Version: 6.00 Build 0)  -->
<svg version="1.1" id="图层_1" xmlns="http://www.w3.org/2000/svg" xmlns:xlink="http://www.w3.org/1999/xlink" x="0px" y="0px"
	 viewBox="0 0 256 252.7" style="enable-background:new 0 0 256 252.7;" xml:space="preserve">
<style type="text/css">
	.st0{fill:#2FBC3C;}
	.st1{fill:#8BF268;}
	.st2{fill:#FFFFFF;}
</style>
<path class="st0" d="M232.2,208.4l-32.6-32.6c-3.3,4.5-6.9,8.8-10.9,12.8c-2.9,2.9-6.1,5.7-9.3,8.3l32.2,32.2
	c2.8,2.8,6.6,4.3,10.3,4.3c3.7,0,7.5-1.4,10.3-4.3l0,0c2.8-2.8,4.3-6.4,4.3-10.3S234.9,211.1,232.2,208.4L232.2,208.4z"/>
<path d="M238.6,202l-34-34c2.4-4.1,4.6-8.3,6.4-12.7c5.4-12.9,8.2-26.5,8.2-40.6S216.5,87,211,74.1c-5.3-12.4-12.8-23.6-22.4-33.2
	s-20.7-17.1-33.2-22.4c-12.9-5.4-26.5-8.2-40.6-8.2s-27.8,2.8-40.6,8.2c-12.4,5.3-23.6,12.8-33.2,22.4S24,61.7,18.7,74.1
	c-5.4,12.9-8.2,26.5-8.2,40.6s2.8,27.8,8.2,40.6c5.3,12.4,12.8,23.6,22.4,33.2s20.7,17.1,33.2,22.4c12.9,5.4,26.5,8.2,40.6,8.2
	s27.8-2.8,40.6-8.2c5.7-2.4,11.2-5.3,16.4-8.7l33.2,33.2c4.6,4.6,10.6,6.9,16.7,6.9c6,0,12.1-2.3,16.7-6.9l0,0
	c4.5-4.5,6.9-10.4,6.9-16.7C245.5,212.4,243,206.4,238.6,202z M232.1,229c-2.8,2.8-6.6,4.3-10.3,4.3c-3.7,0-7.5-1.4-10.3-4.3
	l-32.2-32.2c3.3-2.6,6.4-5.3,9.3-8.3c4-4,7.6-8.2,10.9-12.8l32.6,32.6c2.7,2.7,4.3,6.4,4.3,10.3S234.9,226.2,232.1,229L232.1,229
	L232.1,229z M114.9,19.4c26.6,0,50.8,11,68.1,28.7c-2.6-2.9-5.4-5.8-8.6-8.6c48.4,42.7,47.2,103.8,8.2,142.8
	c-17,17-38.3,26.1-60.2,27.4c-2.5,0.2-5,0.3-7.5,0.3c-52.6,0-95.3-42.8-95.3-95.3S62.3,19.4,114.9,19.4z"/>
<path class="st1" d="M53.5,57.8c-25.9,27.1-38.3,80.4-9.3,118.9c38.7,40.2,99.4,27.9,129.1-0.3c27.1-25.8,45.6-81.5,13.6-123.6
	C144.1,9.3,81.4,28.5,53.5,57.8L53.5,57.8z M78.7,151.5c-9.5-9.5-14.7-22.1-14.7-35.6c0-13.4,5.2-26.1,14.7-35.6
	c9.5-9.5,22.1-14.7,35.6-14.7s26.1,5.2,35.6,14.7c9.5,9.5,14.7,22.1,14.7,35.6s-5.2,26.1-14.7,35.6c-9.5,9.5-22.1,14.7-35.6,14.7
	S88.2,161,78.7,151.5z"/>
<path class="st1" d="M114.9,210c2.5,0,5.1-0.1,7.5-0.3c-27.6,1.6-56-9.3-78-32.8c3.1,4.1,6.6,8,10.7,11.6
	C10.7,149.3,8.6,87.4,47.5,48.4c37.9-37.9,96.6-40.1,139.1,4.2c-1.2-1.5-2.4-3-3.7-4.5c-17.3-17.7-41.4-28.7-68.1-28.7
	c-52.6,0-95.3,42.8-95.3,95.3S62.3,210,114.9,210L114.9,210z"/>
<path d="M164.5,115.9c0-13.4-5.2-26.1-14.7-35.6c-9.5-9.5-22.1-14.7-35.6-14.7s-26.1,5.2-35.6,14.7c-9.5,9.5-14.7,22.1-14.7,35.6
	s5.2,26.1,14.7,35.6c9.5,9.5,22.1,14.7,35.6,14.7s26.1-5.2,35.6-14.7C159.3,142,164.5,129.4,164.5,115.9z M114.2,157.2
	c-22.7,0-41.3-18.5-41.3-41.3s18.5-41.3,41.3-41.3s41.3,18.5,41.3,41.3S137,157.2,114.2,157.2L114.2,157.2z"/>
<path class="st2" d="M44.2,176.7c-29-38.5-16.6-91.7,9.3-118.9c27.9-29.3,90.6-48.5,133.3-4.9c-0.1-0.1-0.1-0.2-0.2-0.3
	c-42.5-44.2-101.2-42-139.1-4.2c-39,39-36.8,100.9,7.6,140.2c-4.1-3.7-7.6-7.6-10.7-11.6c-0.7-0.7-1.3-1.5-2-2.2
	C43,175.4,43.6,176,44.2,176.7z"/>
<path class="st0" d="M186.8,52.8c32,42,13.5,97.7-13.6,123.6c-29.6,28.2-90.4,40.5-129.1,0.3c-0.6-0.6-1.2-1.3-1.8-1.9
	c0.7,0.7,1.3,1.5,2,2.2c21.9,23.5,50.4,34.4,78,32.8c21.9-1.3,43.2-10.5,60.2-27.4c39-39,40.2-100.1-8.2-142.8
	c3.1,2.8,6,5.6,8.6,8.6c1.3,1.5,2.5,3,3.7,4.5L186.8,52.8L186.8,52.8z"/>
</svg>
